#!OML:ASF X:\für Bonn\!DataBase\2005_08_12_Daniel\c3d\Daniel.ASF
:FULLY-SPECIFIED
:DEGREES
156
root -1.64768 17.7703 11.4925 -167.903 34.8481 548.817
lowerback 3.60229 -8.1684 -0.594648
upperback 0.651192 -10.8844 1.13744
thorax -0.990261 -5.43496 1.93584
lowerneck -5.5927 7.81945 1.5886
upperneck -0.556424 10.7357 -10.5696
head 1.52999 5.29141 -3.31549
rclavicle 3.18055e-014 -2.38542e-014
rhumerus -71.0845 11.9938 -90.131
rradius 71.8544
rwrist -3.84251
rhand -25.3831 30.7754
rfingers 7.12502
rthumb 1.14157 0.798748
lclavicle 3.18055e-014 -2.38542e-014
lhumerus -56.632 -4.15514 91.6518
lradius 122.503
lwrist 7.35688
lhand -16.0623 -16.317
lfingers 7.12502
lthumb 10.1401 13.4186
rfemur -33.9489 17.1542 12.16
rtibia 38.3544
rfoot -7.57954 -8.71617
rtoes -9.3193
lfemur 9.90231 -3.0541 -27.1309
ltibia 39.5496
lfoot 2.0641 4.27777
ltoes -1.14428
157
root -1.43599 17.7618 11.234 -167.907 34.3209 548.719
lowerback 3.29555 -8.20269 -0.534649
upperback 0.671327 -10.9283 1.19576
thorax -0.7984 -5.45942 1.91308
lowerneck -5.61246 7.68942 1.77603
upperneck -0.800677 10.5396 -10.7391
head 1.46474 5.2022 -3.41953
rclavicle -2.76311e-014 3.49861e-014
rhumerus -70.8589 11.9108 -89.822
rradius 71.7402
rwrist -3.63313
rhand -25.1526 30.9277
rfingers 7.12502
rthumb 1.36417 0.952314
lclavicle -2.76311e-014 3.49861e-014
lhumerus -57.3945 -5.05191 92.0439
lradius 122.114
lwrist 7.20731
lhand -16.1696 -16.8031
lfingers 7.12502
lthumb 10.0366 12.9376
rfemur -34.1078 18.2347 11.3683
rtibia 36.4977
rfoot -7.231 -8.74922
rtoes -8.91794
lfemur 9.36078 -3.0435 -27.0547
ltibia 42.0792
lfoot 1.57377 4.24577
ltoes -1.4652
158
root -1.22984 17.7374 10.9784 -167.977 33.7931 548.682
lowerback 3.13544 -8.23477 -0.392404
upperback 0.726914 -10.9653 1.25979
thorax -0.665335 -5.47915 1.87329
lowerneck -5.77597 7.5694 1.85079
upperneck -0.970185 10.3685 -10.8196
head 1.43707 5.11994 -3.46518
rclavicle 8.34896e-014 3.18055e-014
rhumerus -70.643 11.8077 -89.524
rradius 71.6603
rwrist -3.20302
rhand -25.152 31.0816
rfingers 7.12502
rthumb 1.36481 1.10625
lclavicle 8.34896e-014 3.18055e-014
lhumerus -58.1678 -5.88182 92.5099
lradius 121.665
lwrist 7.22412
lhand -16.3231 -17.0234
lfingers 7.12502
lthumb 9.88847 12.7244
rfemur -34.278 19.1581 10.7236
rtibia 35.042
rfoot -6.37162 -8.87223
rtoes -9.18602
lfemur 8.76036 -3.06992 -26.9744
ltibia 44.8775
lfoot 1.0295 4.13437
ltoes -2.41136
159
root -1.0269 17.6966 10.7277 -168.311 33.3089 548.744
lowerback 3.37004 -8.23153 -0.220957
upperback 0.861851 -10.9489 1.34666
thorax -0.671097 -5.46954 1.89517
lowerneck -6.02325 7.40485 1.71221
upperneck -1.1221 10.1591 -10.8906
head 1.41327 5.0183 -3.46772
rclavicle -4.87022e-014 0
rhumerus -70.4359 11.6599 -89.1581
rradius 71.5895
rwrist -2.57298
rhand -25.3067 31.0988
rfingers 7.12502
rthumb 1.21532 1.12251
lclavicle -4.87022e-014 0
lhumerus -58.8921 -6.5938 93.0801
lradius 121.156
lwrist 7.42712
lhand -16.4021 -16.9228
lfingers 7.12502
lthumb 9.81222 12.8286
rfemur -34.2376 20.0132 10.3494
rtibia 34.0231
rfoot -5.20156 -9.1057
rtoes -10.4958
lfemur 8.41583 -3.01233 -26.8351
ltibia 47.8059
lfoot 0.533641 3.91916
ltoes -3.90731
160
root -0.828099 17.6389 10.4811 -168.866 32.8498 548.851
lowerback 3.92091 -8.21602 0.0270734
upperback 1.05273 -10.9071 1.36286
thorax -0.822205 -5.44425 1.85194
lowerneck -6.26962 7.2457 1.56226
upperneck -1.30357 9.95146 -10.8859
head 1.37412 4.91904 -3.44288
rclavicle -1.18873e-013 -1.59028e-015
rhumerus -70.241 11.3694 -88.8313
rradius 71.4864
rwrist -1.79822
rhand -25.5588 31.2513
rfingers 7.12502
rthumb 0.971863 1.27378
lclavicle -1.18873e-013 -1.59028e-015
lhumerus -59.5241 -7.24447 93.6083
lradius 120.592
lwrist 7.75694
lhand -16.3153 -16.6069
lfingers 7.12502
lthumb 9.896 13.1405
rfemur -34.0458 20.8163 10.1527
rtibia 33.4455
rfoot -3.94756 -9.37506
rtoes -11.8346
lfemur 8.26971 -2.91103 -26.676
ltibia 50.8143
lfoot 0.12046 3.72882
ltoes -4.0748
161
root -0.634503 17.5697 10.2365 -169.568 32.4503 548.976
lowerback 4.67807 -8.15428 0.285221
upperback 1.29655 -10.7934 1.37272
thorax -1.03677 -5.38048 1.82077
lowerneck -6.70014 7.0616 1.34614
upperneck -1.33011 9.73466 -10.8738
head 1.41352 4.80568 -3.39525
rclavicle 7.87187e-014 -3.49861e-014
rhumerus -70.0385 11.0014 -88.4662
rradius 71.5036
rwrist -1.0051
rhand -25.8392 31.3147
rfingers 7.12502
rthumb 0.701061 1.33614
lclavicle 7.87187e-014 -3.49861e-014
lhumerus -60.0068 -7.72794 94.1853
lradius 119.969
lwrist 8.18275
lhand -16.0697 -16.0404
lfingers 7.12502
lthumb 10.1329 13.6956
rfemur -33.7742 21.4148 10.1405
rtibia 33.3294
rfoot -2.85259 -9.42224
rtoes -13.2102
lfemur 8.20036 -2.69074 -26.5174
ltibia 53.9026
lfoot -0.199809 3.4413
ltoes -3.84133
162
root -0.442303 17.4858 9.99728 -170.24 32.0334 549.23
lowerback 5.50246 -8.1075 0.639842
upperback 1.56301 -10.6838 1.41164
thorax -1.27523 -5.31627 1.77492
lowerneck -7.17063 6.90215 1.19022
upperneck -1.35165 9.55481 -10.9421
head 1.4734 4.70916 -3.38339
rclavicle -4.31363e-014 5.56597e-015
rhumerus -69.744 10.714 -88.1746
rradius 71.4913
rwrist -0.313222
rhand -26.2148 31.3982
rfingers 7.12502
rthumb 0.338292 1.4187
lclavicle -4.31363e-014 5.56597e-015
lhumerus -60.3752 -7.93782 94.7218
lradius 119.224
lwrist 8.5443
lhand -15.6991 -15.4313
lfingers 7.12502
lthumb 10.4905 14.2869
rfemur -33.2831 21.7468 10.3639
rtibia 33.5997
rfoot -2.48747 -9.21713
rtoes -13.5386
lfemur 8.03648 -2.43463 -26.1771
ltibia 57.1251
lfoot -0.521259 3.00044
ltoes -3.64021
